<?xml version="1.0" encoding="UTF-8" standalone="no"?>
<svg
   xmlns:dc="http://purl.org/dc/elements/1.1/"
   xmlns:cc="http://creativecommons.org/ns#"
   xmlns:rdf="http://www.w3.org/1999/02/22-rdf-syntax-ns#"
   xmlns:svg="http://www.w3.org/2000/svg"
   xmlns="http://www.w3.org/2000/svg"
   xmlns:sodipodi="http://sodipodi.sourceforge.net/DTD/sodipodi-0.dtd"
   xmlns:inkscape="http://www.inkscape.org/namespaces/inkscape"
   inkscape:version="1.0 (4035a4fb49, 2020-05-01)"
   sodipodi:docname="svg-list-arrow.svg"
   id="svg4"
   version="1.1"
   viewBox="0 0 24 24"
   height="24"
   width="24">
  <metadata
     id="metadata10">
    <rdf:RDF>
      <cc:Work
         rdf:about="">
        <dc:format>image/svg+xml</dc:format>
        <dc:type
           rdf:resource="http://purl.org/dc/dcmitype/StillImage" />
        <dc:title />
      </cc:Work>
    </rdf:RDF>
  </metadata>
  <defs
     id="defs8" />
  <sodipodi:namedview
     showguides="false"
     inkscape:object-paths="false"
     inkscape:current-layer="svg4"
     inkscape:window-maximized="1"
     inkscape:window-y="-8"
     inkscape:window-x="-8"
     inkscape:cy="13.219512"
     inkscape:cx="6.5654664"
     inkscape:zoom="35.416668"
     showgrid="false"
     id="namedview6"
     inkscape:window-height="1017"
     inkscape:window-width="1920"
     inkscape:pageshadow="2"
     inkscape:pageopacity="0"
     guidetolerance="10"
     gridtolerance="10"
     objecttolerance="10"
     borderopacity="1"
     bordercolor="#666666"
     pagecolor="#ffffff"
     inkscape:document-rotation="0" />
  <path
     id="path2894"
     style="opacity:1;mix-blend-mode:normal;fill:#309eff;fill-opacity:1;fill-rule:evenodd;stroke:#000000;stroke-width:0;stroke-miterlimit:4;stroke-dasharray:none;stroke-dashoffset:0"
     d="m 9.5102826,8.2869279 -0.9059301,0.9059302 -0.904015,0.9059299 2.1470357,2.154697 c 0.6193488,0.62187 1.1830768,1.192525 1.5916018,1.610757 0.204262,0.209113 0.369439,0.380872 0.484568,0.501804 0.05756,0.06046 0.102499,0.10893 0.13407,0.143647 0.01579,0.01736 0.02809,0.02991 0.0383,0.04214 0.0051,0.0061 0.0096,0.01121 0.01533,0.01915 0.0028,0.004 0.0046,0.0084 0.0096,0.01724 0.0025,0.0044 0.0094,0.01884 0.0096,0.01915 6.2e-5,1.57e-4 0.0076,0.02095 0.0076,0.02106 3.1e-5,1.26e-4 0.0038,0.03438 0.0038,0.03448 0,1.24e-4 -0.01143,0.05734 -0.01149,0.05746 -5e-5,1.24e-4 -0.02288,0.03819 -0.02299,0.0383 -2.07e-4,2.47e-4 -0.0398,0.03231 -0.04022,0.03256 -4.14e-4,2.45e-4 -0.01702,0.0092 -0.02299,0.01149 -0.006,0.0024 -0.0093,0.0026 -0.01341,0.0038 -0.01648,0.0047 -0.02608,0.0063 -0.03639,0.0076 -0.02064,0.0028 -0.04358,0.0039 -0.07278,0.0058 -0.05842,0.0036 -0.142369,0.0068 -0.256649,0.0096 -0.228559,0.0057 -0.576189,0.01178 -1.061068,0.01533 -0.9697579,0.0071 -2.4859441,0.0096 -4.6713821,0.0096 H 0.02004135 v 1.308141 1.306225 H 5.9325287 c 2.1875554,0 3.7040668,0.0044 4.6732973,0.01149 0.484616,0.0035 0.832832,0.0077 1.061068,0.01341 0.114118,0.0028 0.196414,0.006 0.254733,0.0096 0.02916,0.0019 0.05214,0.0029 0.07278,0.0058 0.01033,0.0015 0.01987,0.0028 0.03639,0.0076 0.0041,0.0012 0.0075,0.0034 0.01341,0.0058 0.006,0.0024 0.02449,0.0093 0.0249,0.0096 4.15e-4,2.45e-4 0.0381,0.03422 0.0383,0.03448 1.03e-4,1.24e-4 0.02293,0.03819 0.02299,0.0383 5.3e-5,1.25e-4 0.01149,0.05541 0.01149,0.05554 0,9.5e-5 -0.0038,0.03626 -0.0038,0.03639 -3.1e-5,1.26e-4 -0.0076,0.019 -0.0076,0.01915 -1.24e-4,3.14e-4 -0.0071,0.01476 -0.0096,0.01915 -0.005,0.0088 -0.0067,0.01327 -0.0096,0.01724 -0.0057,0.0079 -0.0102,0.01302 -0.01533,0.01915 -0.01026,0.01226 -0.02244,0.02662 -0.0383,0.04405 -0.03174,0.03489 -0.0781,0.08285 -0.135986,0.143647 -0.115783,0.121588 -0.281045,0.293435 -0.486482,0.50372 -0.410875,0.420569 -0.978262,0.994923 -1.6011789,1.620331 l -2.1585272,2.166189 0.8944384,0.871456 c 0.2748313,0.267346 0.528483,0.509788 0.7163169,0.685671 0.090995,0.08521 0.1645788,0.153046 0.2183426,0.201106 0.055429,-0.05282 0.1338326,-0.128609 0.2355797,-0.227919 0.2085417,-0.203544 0.5074075,-0.497788 0.8752865,-0.861879 0.735757,-0.728183 1.74449,-1.734872 2.849945,-2.840369 l 3.916759,-3.914844 -3.935913,-3.937828 z" />
</svg>
