<?xml version="1.0" encoding="UTF-8" standalone="no"?>
<svg
   xmlns:dc="http://purl.org/dc/elements/1.1/"
   xmlns:cc="http://creativecommons.org/ns#"
   xmlns:rdf="http://www.w3.org/1999/02/22-rdf-syntax-ns#"
   xmlns:svg="http://www.w3.org/2000/svg"
   xmlns="http://www.w3.org/2000/svg"
   xmlns:sodipodi="http://sodipodi.sourceforge.net/DTD/sodipodi-0.dtd"
   xmlns:inkscape="http://www.inkscape.org/namespaces/inkscape"
   inkscape:version="1.0 (4035a4fb49, 2020-05-01)"
   sodipodi:docname="svg-list-arrow.svg"
   id="svg4"
   version="1.1"
   viewBox="0 0 24 24"
   height="24"
   width="24">
  <metadata
     id="metadata10">
    <rdf:RDF>
      <cc:Work
         rdf:about="">
        <dc:format>image/svg+xml</dc:format>
        <dc:type
           rdf:resource="http://purl.org/dc/dcmitype/StillImage" />
      </cc:Work>
    </rdf:RDF>
  </metadata>
  <defs
     id="defs8" />
  <sodipodi:namedview
     showguides="false"
     inkscape:object-paths="false"
     inkscape:current-layer="svg4"
     inkscape:window-maximized="1"
     inkscape:window-y="-8"
     inkscape:window-x="-8"
     inkscape:cy="14.616635"
     inkscape:cx="4.6174708"
     inkscape:zoom="25.043366"
     showgrid="false"
     id="namedview6"
     inkscape:window-height="1017"
     inkscape:window-width="1920"
     inkscape:pageshadow="2"
     inkscape:pageopacity="0"
     guidetolerance="10"
     gridtolerance="10"
     objecttolerance="10"
     borderopacity="1"
     bordercolor="#666666"
     pagecolor="#ffffff"
     inkscape:document-rotation="0" />
  <path
     id="path2894"
     d="M 8.8037569,22.976183 7.7825534,21.98279 10.091433,19.664678 c 1.269883,-1.274963 2.308879,-2.338475 2.308879,-2.363362 0,-0.03266 -1.719577,-0.04525 -6.1808426,-0.04525 H 0.03862732 V 15.772665 14.289263 H 6.2194694 c 4.4569466,0 6.1808426,-0.01261 6.1808426,-0.0452 0,-0.02486 -1.033042,-1.08244 -2.295649,-2.350183 L 7.8090151,9.5888967 8.8376805,8.5602321 9.8663456,7.5315671 13.98674,11.652116 l 4.120394,4.120548 -4.099804,4.09996 c -2.254892,2.254978 -4.11838,4.099283 -4.1410865,4.098455 -0.022702,-8.28e-4 -0.5008241,-0.44853 -1.0624866,-0.994896 z"
     style="opacity:1;mix-blend-mode:normal;fill:#309eff;fill-opacity:1;fill-rule:evenodd;stroke:#000000;stroke-width:0;stroke-miterlimit:4;stroke-dasharray:none;stroke-dashoffset:0" />
</svg>
