<?xml version="1.0" encoding="UTF-8" standalone="no"?>
<svg
   xmlns:dc="http://purl.org/dc/elements/1.1/"
   xmlns:cc="http://creativecommons.org/ns#"
   xmlns:rdf="http://www.w3.org/1999/02/22-rdf-syntax-ns#"
   xmlns:svg="http://www.w3.org/2000/svg"
   xmlns="http://www.w3.org/2000/svg"
   xmlns:sodipodi="http://sodipodi.sourceforge.net/DTD/sodipodi-0.dtd"
   xmlns:inkscape="http://www.inkscape.org/namespaces/inkscape"
   width="24"
   height="24"
   viewBox="0 0 24 24"
   version="1.1"
   id="svg4"
   sodipodi:docname="svg-list-arrow.svg"
   inkscape:version="1.0 (4035a4fb49, 2020-05-01)">
  <metadata
     id="metadata10">
    <rdf:RDF>
      <cc:Work
         rdf:about="">
        <dc:format>image/svg+xml</dc:format>
        <dc:type
           rdf:resource="http://purl.org/dc/dcmitype/StillImage" />
        <dc:title></dc:title>
      </cc:Work>
    </rdf:RDF>
  </metadata>
  <defs
     id="defs8" />
  <sodipodi:namedview
     inkscape:document-rotation="0"
     pagecolor="#ffffff"
     bordercolor="#666666"
     borderopacity="1"
     objecttolerance="10"
     gridtolerance="10"
     guidetolerance="10"
     inkscape:pageopacity="0"
     inkscape:pageshadow="2"
     inkscape:window-width="1920"
     inkscape:window-height="1017"
     id="namedview6"
     showgrid="false"
     inkscape:zoom="50.086732"
     inkscape:cx="6.7607429"
     inkscape:cy="16.325676"
     inkscape:window-x="-8"
     inkscape:window-y="-8"
     inkscape:window-maximized="1"
     inkscape:current-layer="svg4"
     inkscape:object-paths="false"
     showguides="false" />
  <path
     d="M 9.6977757,7.9763397 8.7739476,8.9001678 7.8520726,9.823996 10.041526,12.021262 c 0.631585,0.634156 1.20645,1.216085 1.623046,1.642579 0.208298,0.213245 0.376738,0.388397 0.494141,0.511718 0.0587,0.06166 0.104524,0.111082 0.136719,0.146485 0.0161,0.0177 0.02864,0.0305 0.03906,0.04297 0.0052,0.0062 0.0098,0.01143 0.01563,0.01953 0.0029,0.0041 0.0047,0.0086 0.0098,0.01758 0.0025,0.0045 0.0096,0.01921 0.0098,0.01953 6.4e-5,1.6e-4 0.0078,0.02136 0.0078,0.02148 3.1e-5,1.29e-4 0.0039,0.03506 0.0039,0.03516 0,1.27e-4 -0.01166,0.05847 -0.01172,0.05859 -5.1e-5,1.27e-4 -0.02333,0.03894 -0.02344,0.03906 -2.11e-4,2.52e-4 -0.04059,0.03295 -0.04102,0.0332 -4.22e-4,2.5e-4 -0.01736,0.0094 -0.02344,0.01172 -0.0061,0.0024 -0.0095,0.0027 -0.01367,0.0039 -0.01681,0.0048 -0.02659,0.0064 -0.03711,0.0078 -0.02105,0.0029 -0.04444,0.004 -0.07422,0.0059 -0.05957,0.0037 -0.145181,0.0069 -0.261719,0.0098 -0.233075,0.0058 -0.587573,0.01201 -1.082031,0.01563 -0.9889168,0.0072 -2.5350574,0.0098 -4.7636718,0.0098 H 0.02004136 v 1.333985 1.332031 H 6.0493382 c 2.2307736,0 3.7772459,0.0045 4.7656248,0.01172 0.49419,0.0036 0.849286,0.0079 1.082031,0.01367 0.116373,0.0029 0.200294,0.0061 0.259766,0.0098 0.02974,0.0019 0.05317,0.003 0.07422,0.0059 0.01053,0.0015 0.02026,0.0029 0.03711,0.0078 0.0042,0.0012 0.0076,0.0035 0.01367,0.0059 0.0061,0.0024 0.02497,0.0095 0.02539,0.0098 4.23e-4,2.5e-4 0.03885,0.0349 0.03906,0.03516 1.05e-4,1.26e-4 0.02338,0.03894 0.02344,0.03906 5.4e-5,1.27e-4 0.01172,0.05651 0.01172,0.05664 0,9.7e-5 -0.0039,0.03698 -0.0039,0.03711 -3.2e-5,1.28e-4 -0.0077,0.01937 -0.0078,0.01953 -1.26e-4,3.21e-4 -0.0072,0.01505 -0.0098,0.01953 -0.0051,0.009 -0.0068,0.01353 -0.0098,0.01758 -0.0058,0.0081 -0.0104,0.01328 -0.01563,0.01953 -0.01046,0.0125 -0.02288,0.02714 -0.03906,0.04492 -0.03237,0.03558 -0.07964,0.08449 -0.138672,0.146485 -0.118071,0.12399 -0.286598,0.299232 -0.496094,0.513672 -0.418992,0.428878 -0.997589,1.014579 -1.632812,1.652343 l -2.201172,2.208985 0.9121093,0.888672 c 0.280261,0.272628 0.538924,0.51986 0.7304688,0.699218 0.092793,0.08689 0.1678303,0.15607 0.2226562,0.205079 0.056524,-0.05386 0.1364767,-0.13115 0.2402339,-0.232422 0.2126618,-0.207565 0.5174318,-0.507622 0.8925788,-0.878907 0.750293,-0.742569 1.778955,-1.769146 2.90625,-2.896484 l 3.99414,-3.992187 -4.013672,-4.015626 z"
     style="opacity:1;mix-blend-mode:normal;fill:#309eff;fill-opacity:1;fill-rule:evenodd;stroke:#000000;stroke-width:0;stroke-miterlimit:4;stroke-dasharray:none;stroke-dashoffset:0"
     id="path2894" />
</svg>
